<svg width="60" height="60" viewBox="0 0 60 60" fill="none" xmlns="http://www.w3.org/2000/svg">
<circle cx="30" cy="30" r="30" fill="#F2C94C"/>
<path d="M29.9999 18C29.6905 18 29.3938 18.1229 29.175 18.3417C28.9562 18.5605 28.8333 18.8572 28.8333 19.1667V21.5C28.8333 21.8094 28.9562 22.1062 29.175 22.325C29.3938 22.5437 29.6905 22.6667 29.9999 22.6667C30.3093 22.6667 30.6061 22.5437 30.8249 22.325C31.0437 22.1062 31.1666 21.8094 31.1666 21.5V19.1667C31.1666 18.8572 31.0437 18.5605 30.8249 18.3417C30.6061 18.1229 30.3093 18 29.9999 18ZM29.9999 13.3333C27.834 13.3333 25.7568 14.1937 24.2252 15.7253C22.6937 17.2568 21.8333 19.3341 21.8333 21.5V28.5C21.8333 30.6659 22.6937 32.7432 24.2252 34.2747C25.7568 35.8062 27.834 36.6667 29.9999 36.6667C32.1659 36.6667 34.2431 35.8062 35.7746 34.2747C37.3062 32.7432 38.1666 30.6659 38.1666 28.5V21.5C38.1666 19.3341 37.3062 17.2568 35.7746 15.7253C34.2431 14.1937 32.1659 13.3333 29.9999 13.3333ZM35.8333 28.5C35.8333 30.0471 35.2187 31.5308 34.1247 32.6248C33.0307 33.7187 31.547 34.3333 29.9999 34.3333C28.4528 34.3333 26.9691 33.7187 25.8751 32.6248C24.7812 31.5308 24.1666 30.0471 24.1666 28.5V21.5C24.1666 19.9529 24.7812 18.4692 25.8751 17.3752C26.9691 16.2812 28.4528 15.6667 29.9999 15.6667C31.547 15.6667 33.0307 16.2812 34.1247 17.3752C35.2187 18.4692 35.8333 19.9529 35.8333 21.5V28.5Z" fill="#32495E"/>
<path d="M30 49L27.4019 44.5L32.5981 44.5L30 49Z" fill="#32495E"/>
</svg>
