<svg width="44" height="44" viewBox="0 0 44 44" fill="none" xmlns="http://www.w3.org/2000/svg">
<g clip-path="url(#clip0)">
<path d="M3.15924 19.6022C2.3185 19.6022 1.63672 20.2839 1.63672 21.1248C1.63672 25.2631 2.76516 29.2005 4.90013 32.5108C6.99242 35.7553 9.98442 38.1959 13.3243 39.3828C13.488 39.4409 13.6604 39.4707 13.8341 39.4707H22.6293C22.8029 39.4707 22.9754 39.4409 23.1391 39.3828C26.4791 38.1959 29.4709 35.7553 31.5632 32.5108C32.1312 31.6302 32.6256 30.704 33.0487 29.7427H36.5874C39.3829 29.7427 41.6575 27.4682 41.6575 24.6725C41.6575 21.8769 39.3829 19.6024 36.5874 19.6024H3.15924V19.6022ZM38.6129 24.6725C38.6129 25.7892 37.7044 26.6978 36.5877 26.6978H34.1109C34.4566 25.3876 34.6813 24.0326 34.7752 22.6473H36.5877C37.7044 22.6473 38.6129 23.5557 38.6129 24.6725ZM31.7198 22.6473C31.2032 28.9637 27.5095 34.4693 22.3589 36.4256H14.1047C8.9542 34.4693 5.26057 28.9637 4.74383 22.6473H31.7198V22.6473Z" fill="#F9F9F9"/>
<path d="M40.8407 40.9551H3.15924C2.3185 40.9551 1.63672 41.6367 1.63672 42.4776C1.63672 43.3185 2.3185 44 3.15924 44H40.8406C41.6813 44 42.3631 43.3183 42.3631 42.4774C42.3631 41.6366 41.6815 40.9551 40.8407 40.9551Z" fill="#F9F9F9"/>
<path d="M8.2484 17.7191C8.54322 18.1505 9.02085 18.3827 9.50663 18.3827C9.80248 18.3827 10.1016 18.2966 10.3644 18.117C11.0586 17.6427 11.2367 16.6953 10.7623 16.001C10.7474 15.979 9.273 13.7758 10.5109 11.6243C12.7198 7.78503 10.268 4.49659 10.1626 4.35852C9.65226 3.69037 8.697 3.56252 8.02855 4.07244C7.3604 4.58281 7.23226 5.53822 7.74248 6.20652C7.75596 6.22415 9.08159 8.00281 7.87166 10.1056C5.69048 13.8963 8.14292 17.5647 8.2484 17.7191Z" fill="#F9F9F9"/>
<path d="M17.2896 17.3515C17.5634 17.8658 18.0902 18.159 18.6349 18.159C18.8761 18.159 19.1208 18.1015 19.3487 17.9803C20.0909 17.5854 20.3725 16.6635 19.9776 15.9211C19.9603 15.8882 18.2448 12.5977 19.621 9.41367C21.5887 4.86034 19.3034 0.912489 19.2051 0.746563C18.7766 0.0233037 17.8431 -0.215956 17.1192 0.212785C16.396 0.641378 16.1569 1.5753 16.5854 2.29871C16.6016 2.32597 18.185 5.06123 16.8259 8.20582C14.8754 12.7195 17.1902 17.1643 17.2896 17.3515Z" fill="#F9F9F9"/>
<path d="M26.5167 17.4955C26.8116 17.9269 27.2892 18.1591 27.775 18.1591C28.0708 18.1591 28.3699 18.073 28.6327 17.8935C29.327 17.4191 29.505 16.4717 29.0307 15.7775C29.0157 15.7554 27.5413 13.5523 28.7793 11.4007C30.9881 7.56146 28.5363 4.27302 28.431 4.13494C27.9206 3.4668 26.9653 3.33894 26.2969 3.84887C25.6287 4.35924 25.5006 5.31465 26.0108 5.98294C26.0243 6.00057 27.3499 7.77924 26.14 9.88206C23.9588 13.6727 26.4111 17.3413 26.5167 17.4955Z" fill="#F9F9F9"/>
</g>
<defs>
<clipPath id="clip0">
<rect width="44" height="44" fill="white"/>
</clipPath>
</defs>
</svg>
