<svg width="40" height="44" viewBox="0 0 40 44" fill="none" xmlns="http://www.w3.org/2000/svg">
<path d="M8.23294 5.68415C8.23294 5.06138 9.30566 4.55657 10.6287 4.55657C11.9515 4.55657 13.0243 5.06138 13.0243 5.68415C13.0243 6.3068 11.9515 6.81161 10.6287 6.81161C9.30566 6.81161 8.23294 6.3068 8.23294 5.68415ZM39.9387 5.68415V38.6509C39.9387 39.3622 39.362 39.9387 38.6509 39.9387H20.8505C19.5971 42.3466 15.5732 44 10.6286 44C5.17406 44 0.839249 41.9873 0.108947 39.17C0.0388912 39.0112 0 38.8356 0 38.6509V5.68415C0.000128778 2.4437 4.56945 0 10.6287 0C15.8538 0 19.9681 1.81797 21.0025 4.39637H38.6509C39.3622 4.39637 39.9387 4.97291 39.9387 5.68415ZM2.5757 5.68415C2.5757 6.95159 5.71274 8.79274 10.6287 8.79274C15.5445 8.79274 18.6815 6.95172 18.6815 5.68415C18.6815 4.41659 15.5445 2.57557 10.6287 2.57557C5.71274 2.57557 2.5757 4.41659 2.5757 5.68415ZM18.6711 38.4472C18.6742 38.428 18.6776 38.4091 18.6815 38.3903V9.47449C16.7631 10.6495 13.915 11.3683 10.6287 11.3683C7.34231 11.3683 4.49411 10.6493 2.5757 9.47449V38.3901C2.57956 38.409 2.58317 38.428 2.58613 38.4472C2.7811 39.664 5.75717 41.4244 10.6287 41.4244C15.5 41.4244 18.4761 39.664 18.6711 38.4472ZM37.3631 6.97194H21.2571L21.2573 37.3631H37.3631V6.97194ZM15.2715 26.3136H15.1462C14.435 26.3136 13.8584 26.8901 13.8584 27.6013C13.8584 28.3126 14.435 28.8891 15.1462 28.8891H15.2715C15.9826 28.8891 16.5592 28.3126 16.5592 27.6013C16.5592 26.8901 15.9827 26.3136 15.2715 26.3136ZM6.1108 26.3136H5.98588C5.27477 26.3136 4.6981 26.8901 4.6981 27.6013C4.6981 28.3126 5.27477 28.8891 5.98588 28.8891H6.1108C6.82191 28.8891 7.39858 28.3126 7.39858 27.6013C7.39858 26.8901 6.82191 26.3136 6.1108 26.3136ZM15.2715 30.7036H15.1462C14.435 30.7036 13.8584 31.2802 13.8584 31.9914C13.8584 32.7026 14.435 33.2792 15.1462 33.2792H15.2715C15.9826 33.2792 16.5592 32.7026 16.5592 31.9914C16.5592 31.2802 15.9827 30.7036 15.2715 30.7036ZM10.6913 31.6536H10.566C9.8549 31.6536 9.27823 32.2302 9.27823 32.9414C9.27823 33.6526 9.8549 34.2292 10.566 34.2292H10.6913C11.4024 34.2292 11.9791 33.6526 11.9791 32.9414C11.9791 32.2302 11.4026 31.6536 10.6913 31.6536ZM6.1108 30.7036H5.98588C5.27477 30.7036 4.6981 31.2802 4.6981 31.9914C4.6981 32.7026 5.27477 33.2792 5.98588 33.2792H6.1108C6.82191 33.2792 7.39858 32.7026 7.39858 31.9914C7.39858 31.2802 6.82191 30.7036 6.1108 30.7036ZM15.2715 35.0935H15.1462C14.435 35.0935 13.8584 35.6701 13.8584 36.3813C13.8584 37.0926 14.435 37.6691 15.1462 37.6691H15.2715C15.9826 37.6691 16.5592 37.0926 16.5592 36.3813C16.5592 35.6701 15.9827 35.0935 15.2715 35.0935ZM10.6913 36.0437H10.566C9.8549 36.0437 9.27823 36.6202 9.27823 37.3315C9.27823 38.0427 9.8549 38.6192 10.566 38.6192H10.6913C11.4024 38.6192 11.9791 38.0427 11.9791 37.3315C11.9791 36.6202 11.4026 36.0437 10.6913 36.0437ZM6.1108 35.0935H5.98588C5.27477 35.0935 4.6981 35.6701 4.6981 36.3813C4.6981 37.0926 5.27477 37.6691 5.98588 37.6691H6.1108C6.82191 37.6691 7.39858 37.0926 7.39858 36.3813C7.39858 35.6701 6.82191 35.0935 6.1108 35.0935ZM6.1108 21.5812H5.98588C5.27477 21.5812 4.6981 22.1578 4.6981 22.869C4.6981 23.5802 5.27477 24.1568 5.98588 24.1568H6.1108C6.82191 24.1568 7.39858 23.5802 7.39858 22.869C7.39858 22.1578 6.82191 21.5812 6.1108 21.5812Z" fill="#F9F9F9"/>
</svg>
