<svg width="50" height="50" viewBox="0 0 50 50" fill="none" xmlns="http://www.w3.org/2000/svg">
<g clip-path="url(#clip0)">
<path d="M45.5777 4.41643V7.36918H44.0905L41.1752 4.41643H11.4285H11.4143V4.43231L8.80032 7.35398V7.36918H4.42221V4.41643H0V13.2052H4.42221V11.8205H8.80032V14.6918H10.2706V11.8205H13.2765V39.7351H10.2706V19.1025H8.80032V41.2054H13.2765V45.5836H44.1515V11.8205H45.5777V13.2052H50V4.41643H45.5777ZM40.5606 5.88668L42.6813 8.03451V33.8541H39.6919V35.3244H42.6813V36.7944H14.7468V35.3244H35.2811V33.8541H14.7468V7.35261L13.4269 5.88668H40.5606ZM11.7683 6.24179L12.7833 7.36918H10.7595L11.7683 6.24179ZM1.47025 5.88668H2.95196V11.7349H1.47025V5.88668ZM4.42221 10.3503V8.83942H13.2765V10.3503H4.42221ZM14.7468 44.1133V38.2647H42.6813V44.1133H14.7468ZM44.1515 8.83942H45.5777V10.3503H44.1515V8.83942ZM48.5297 11.7349H47.0479V5.88668H48.5297V11.7349Z" fill="#F9F9F9"/>
<path d="M8.80029 16.1621H10.2705V17.6323H8.80029V16.1621Z" fill="#F9F9F9"/>
<path d="M36.7515 33.8541H38.2217V35.3244H36.7515V33.8541Z" fill="#F9F9F9"/>
</g>
<defs>
<clipPath id="clip0">
<rect width="50" height="50" fill="white"/>
</clipPath>
</defs>
</svg>
